<mxfile host="app.diagrams.net" modified="2024-04-27T15:04:23.149Z" agent="Mozilla/5.0 (Windows NT 10.0; Win64; x64) AppleWebKit/537.36 (KHTML, like Gecko) Chrome/120.0.0.0 Safari/537.36" etag="7rp2xaS9qDsyMML0u9gM" version="24.3.0" type="github">
  <diagram name="Strona-1" id="jlNhDV8Rwpr0uxGnopEM">
    <mxGraphModel dx="882" dy="612" grid="1" gridSize="10" guides="1" tooltips="1" connect="1" arrows="1" fold="1" page="1" pageScale="1" pageWidth="827" pageHeight="1169" math="0" shadow="0">
      <root>
        <mxCell id="0" />
        <mxCell id="1" parent="0" />
        <mxCell id="kG8gMviqTRcCaTFL-ExX-7" style="edgeStyle=orthogonalEdgeStyle;rounded=0;orthogonalLoop=1;jettySize=auto;html=1;entryX=0.5;entryY=0;entryDx=0;entryDy=0;" edge="1" parent="1" source="kG8gMviqTRcCaTFL-ExX-2" target="kG8gMviqTRcCaTFL-ExX-5">
          <mxGeometry relative="1" as="geometry" />
        </mxCell>
        <mxCell id="kG8gMviqTRcCaTFL-ExX-2" value="Start" style="strokeWidth=2;html=1;shape=mxgraph.flowchart.start_1;whiteSpace=wrap;" vertex="1" parent="1">
          <mxGeometry x="220" y="80" width="100" height="60" as="geometry" />
        </mxCell>
        <mxCell id="kG8gMviqTRcCaTFL-ExX-17" value="" style="edgeStyle=orthogonalEdgeStyle;rounded=0;orthogonalLoop=1;jettySize=auto;html=1;" edge="1" parent="1" source="kG8gMviqTRcCaTFL-ExX-5" target="kG8gMviqTRcCaTFL-ExX-9">
          <mxGeometry relative="1" as="geometry" />
        </mxCell>
        <mxCell id="kG8gMviqTRcCaTFL-ExX-5" value="Intermission" style="rounded=1;whiteSpace=wrap;html=1;absoluteArcSize=1;arcSize=14;strokeWidth=2;" vertex="1" parent="1">
          <mxGeometry x="220" y="180" width="100" height="50" as="geometry" />
        </mxCell>
        <mxCell id="kG8gMviqTRcCaTFL-ExX-8" value="Start Countdown" style="rounded=1;whiteSpace=wrap;html=1;absoluteArcSize=1;arcSize=14;strokeWidth=2;" vertex="1" parent="1">
          <mxGeometry x="370" y="290" width="100" height="30" as="geometry" />
        </mxCell>
        <mxCell id="kG8gMviqTRcCaTFL-ExX-13" value="" style="edgeStyle=orthogonalEdgeStyle;rounded=0;orthogonalLoop=1;jettySize=auto;html=1;" edge="1" parent="1" source="kG8gMviqTRcCaTFL-ExX-9" target="kG8gMviqTRcCaTFL-ExX-8">
          <mxGeometry relative="1" as="geometry">
            <Array as="points">
              <mxPoint x="420" y="260" />
              <mxPoint x="420" y="260" />
            </Array>
          </mxGeometry>
        </mxCell>
        <mxCell id="kG8gMviqTRcCaTFL-ExX-16" value="Yes" style="edgeLabel;html=1;align=center;verticalAlign=middle;resizable=0;points=[];" vertex="1" connectable="0" parent="kG8gMviqTRcCaTFL-ExX-13">
          <mxGeometry x="0.1846" y="4" relative="1" as="geometry">
            <mxPoint x="6" y="-12" as="offset" />
          </mxGeometry>
        </mxCell>
        <mxCell id="kG8gMviqTRcCaTFL-ExX-9" value="MinPlayers" style="strokeWidth=2;html=1;shape=mxgraph.flowchart.decision;whiteSpace=wrap;" vertex="1" parent="1">
          <mxGeometry x="380" y="165" width="80" height="80" as="geometry" />
        </mxCell>
        <mxCell id="kG8gMviqTRcCaTFL-ExX-11" style="edgeStyle=orthogonalEdgeStyle;rounded=0;orthogonalLoop=1;jettySize=auto;html=1;elbow=vertical;" edge="1" parent="1" source="kG8gMviqTRcCaTFL-ExX-9" target="kG8gMviqTRcCaTFL-ExX-9">
          <mxGeometry relative="1" as="geometry">
            <Array as="points">
              <mxPoint x="480" y="200" />
            </Array>
          </mxGeometry>
        </mxCell>
        <mxCell id="kG8gMviqTRcCaTFL-ExX-14" value="No" style="edgeLabel;html=1;align=center;verticalAlign=middle;resizable=0;points=[];" vertex="1" connectable="0" parent="kG8gMviqTRcCaTFL-ExX-11">
          <mxGeometry x="-0.3333" y="8" relative="1" as="geometry">
            <mxPoint x="2" y="10" as="offset" />
          </mxGeometry>
        </mxCell>
        <mxCell id="kG8gMviqTRcCaTFL-ExX-18" value="" style="strokeWidth=2;html=1;shape=mxgraph.flowchart.start_1;whiteSpace=wrap;" vertex="1" parent="1">
          <mxGeometry x="440" y="80" width="100" height="60" as="geometry" />
        </mxCell>
      </root>
    </mxGraphModel>
  </diagram>
</mxfile>
